<svg id="Capa_1" enable-background="new 0 0 511.999 511.999" height="512" viewBox="0 0 511.999 511.999" width="512" xmlns="http://www.w3.org/2000/svg"><g><path d="m375.891 34.684h-211.532v444.645h214.623l8.365-9.053v-428.553z" fill="#dbedff"/><path d="m167.403 41.723 20.477-7.039h-42.751l-20.477 7.039v428.553l9.269 9.053h42.751l-9.269-9.053z" fill="#b5dcff"/><path d="m387.347 470.276c-80.155 0-146.682 0-222.987 0v23.991l5.323 10.302 11.413 7.43h184.102c12.182 0 22.15-9.967 22.15-22.15z" fill="#6b7ed9"/><path d="m167.403 489.849v-19.573c-13.887 0-28.09 0-42.751 0v19.573c0 12.182 9.967 22.15 22.15 22.15h42.751c-12.182 0-22.15-9.967-22.15-22.15z" fill="#4d66d2"/><path d="m365.197 0c-5.333 0-128.536 0-187.589 0l-7.497 3.383-5.752 15.848v22.492h26.319c4.599 0 8.698 2.62 10.944 6.633 3.395 6.067 9.878 10.194 17.291 10.194h74.172c7.413 0 13.896-4.126 17.291-10.194 2.245-4.013 6.345-6.633 10.943-6.633h66.026v-19.573c.002-12.183-9.965-22.15-22.148-22.15z" fill="#6b7ed9"/><path d="m167.403 22.15c0-12.182 9.967-22.15 22.15-22.15-23.671 0-40.667 0-42.751 0-12.183 0-22.15 9.967-22.15 22.15v19.573h42.751z" fill="#4d66d2"/><path d="m344.683 109.061h-151.169l-3.96 7.471v142.293l155.089 23.91 10.255-6.203v-157.256c0-5.642-4.574-10.215-10.215-10.215z" fill="#60b9fe"/><path d="m195.093 118.333c0-3.687 1.644-7.002 4.226-9.272h-32.003c-5.641 0-10.215 4.573-10.215 10.215v125.648l14.126 11.076 23.866 3.679z" fill="#1ca8ff"/><path d="m224.883 214.857c-9.653-9.654-24.863-10.352-35.329-2.109v121.326l8.039 5.75h3.064l15.52-4.548 59.076-59.064v-10.984z" fill="#73d578"/><path d="m195.093 329.952v-120.564c-2.873 1.29-5.566 3.109-7.925 5.468l-30.067 30.067v84.685c0 5.641 4.573 10.215 10.215 10.215h32.742c-3.004-2.261-4.965-5.843-4.965-9.871z" fill="#4bce5b"/><path d="m234.125 34.684h43.75c4.267 0 7.726-3.459 7.726-7.726s-3.459-7.726-7.726-7.726h-43.75c-4.267 0-7.726 3.459-7.726 7.726s3.459 7.726 7.726 7.726z" fill="#8896e0"/><path d="m248.273 387.726c0 4.268 3.459 7.726 7.726 7.726h88.078c4.267 0 7.726-3.459 7.726-7.726s-3.458-7.726-7.725-7.726h-88.078c-4.268 0-7.727 3.459-7.727 7.726z" fill="#b5dcff"/><path d="m344.078 410.047h-88.078c-4.267 0-7.726 3.459-7.726 7.726 0 4.268 3.459 7.726 7.726 7.726h88.078c4.267 0 7.726-3.459 7.726-7.726s-3.459-7.726-7.726-7.726z" fill="#b5dcff"/><path d="m219.659 377.94c-6.421-6.162-16.679-5.85-23.066.348l-1.467 1.423c-.914.888-2.369.888-3.283 0l-1.467-1.424-3.524 1.713-4.25 8.673s-.901 13.779 0 14.809 13.908 10.817 13.908 10.817 4.488.781 8.412 1.647c6.137-5.956 12.725-12.349 14.814-14.376 6.646-6.451 6.664-17.161-.077-23.63z" fill="#ff76aa"/><g><path d="m190.79 401.57c-6.505-6.313-6.643-16.695-.328-23.199l-.086-.083c-6.386-6.197-16.645-6.51-23.065-.348-6.741 6.469-6.724 17.179-.076 23.63 2.16 2.097 14.064 13.649 21.185 20.559 2.824 2.74 7.308 2.738 10.132-.002 1.989-1.93 4.324-4.196 6.711-6.512-6.258-6.074-12.911-12.53-14.473-14.045z" fill="#ff5595"/></g><path d="m299.197 155.164h-8.039s-13.212 17.943-13.56 18.715c-.348.773 8.151 21.634 8.924 23.694.42 1.119 5.165 4.134 9.622 6.781 9.526-4.507 16.117-14.202 16.117-25.439 0-9.992-5.213-18.761-13.064-23.751z" fill="#ffe559"/><path d="m286.133 178.915c0-9.992 5.214-18.76 13.064-23.751-4.356-2.769-9.522-4.38-15.066-4.38-15.536 0-28.131 12.595-28.131 28.131s12.595 28.131 28.131 28.131c5.545 0 10.71-1.611 15.066-4.38-7.851-4.991-13.064-13.76-13.064-23.751z" fill="#ffd500"/><path d="m337.094 258.729h-10.308l-66.619 65.557-7.081 15.537h91.597c5.641 0 10.215-4.573 10.215-10.215v-53.076z" fill="#4bce5b"/><path d="m328.279 249.915c-10.415-10.414-27.3-10.415-37.715 0l-89.908 89.908h55.344l81.094-81.094z" fill="#00c63a"/></g></svg>