<svg width="314" height="90" viewBox="0 0 314 90" fill="none" xmlns="http://www.w3.org/2000/svg">
<path d="M312.021 2.19253L312.254 1.11404L311.15 1.11391C229.556 1.10465 147.963 1.11101 66.3687 1.12458L66.1206 1.12462L65.9082 1.25295L18.192 30.0913L17.8917 30.2728L17.7959 30.6103L1.58086 87.7569L1.25923 88.8905H2.4375H292.559H293.277L293.429 88.1882L312.021 2.19253Z" fill="#64C2FF" stroke="black" stroke-width="1.78091"/>
<path d="M140.035 10.1123L135.715 29.3726L135.364 30.9367L136.76 30.1489L172.204 10.1474L194.166 10.1133L194.74 15.5591L194.874 16.8207L195.881 16.0503L203.586 10.1608L300.023 10.1128L284.584 79.0491H14.9245L26.4366 36.4451L69.7864 10.1177L99.7467 10.1124C99.7468 10.1124 99.7468 10.1124 99.7469 10.1124C100.979 10.1124 102.866 10.2098 104.862 10.4982C106.81 10.7797 109.073 11.2726 110.951 12.1558C111.856 12.6732 112.738 13.3042 113.229 13.7174L113.669 14.0879L114.124 13.7349L118.825 10.0861L131.275 10.0863L131.28 10.1123H131.882H140.035ZM131.878 9.40063V9.40063Z" fill="black" stroke="#64C2FF" stroke-width="1.42473"/>
<path fill-rule="evenodd" clip-rule="evenodd" d="M56.3301 75.8937L70.6031 12.9138H98.9706C101.201 12.9138 106.018 13.2706 109.051 14.6979C114.871 17.4319 116.943 22.9558 116.989 27.6495L120.308 12.9138H135.919L124.59 63.1372H143.039L173.699 12.9138H191.362L196.517 61.4397L233.502 25.2243H203.172L206.027 12.9138H255.893L255.879 12.9732H296.283L293.517 25.1053H263.633L260.868 37.2374H289.682L287.095 48.8343H258.281L254.802 63.9994H284.826L282.239 75.9531H236.604L236.618 75.8937H182.709L181.906 63.4048H158.712L151.754 75.8937H106.124L107.095 71.5837C101.749 75.4487 95.0482 75.8937 91.3881 75.8937H56.3301ZM239.404 63.6724L246.619 32.0348L214.234 63.6724H239.404ZM114.136 36.8212C114.606 36.2008 115.015 35.5445 115.365 34.8609L112.321 48.3799C110.198 45.5005 107.017 44.0547 104.131 42.7432L104.055 42.7088L104.133 42.6889C107.242 41.8895 111.128 40.8907 114.136 36.8212ZM83.3595 24.3323L80.2373 37.7133H91.9233L92.0457 37.7065C95.2971 37.527 101.647 37.1766 101.647 30.0415C101.647 24.6891 97.0973 24.4215 94.6887 24.3323H83.3595ZM77.6503 49.1317L74.2605 64.2968H87.9091C91.2989 64.2076 94.5103 64.1184 96.8297 60.9962C98.0786 59.3013 98.4354 57.2495 98.4354 55.6438C98.4354 54.5733 98.257 53.592 97.9001 52.7C96.3535 49.5208 93.4826 49.321 91.0414 49.1512L90.7637 49.1317H77.6503ZM179.497 26.1164L181.192 51.9863H165.135L179.497 26.1164Z" fill="#FF1D21"/>
</svg>
